<svg id="visual" viewBox="0 0 900 50" width="900" height="50" xmlns="http://www.w3.org/2000/svg" xmlns:xlink="http://www.w3.org/1999/xlink" version="1.1"><rect x="0" y="0" width="900" height="50" fill="#002233"></rect><path d="M0 33L6 31.3C12 29.7 24 26.3 36 27C48 27.7 60 32.3 72 32.3C84 32.3 96 27.7 108 26.8C120 26 132 29 144 30.3C156 31.7 168 31.3 180 32.2C192 33 204 35 216 35.8C228 36.7 240 36.3 252 36.7C264 37 276 38 288 37.3C300 36.7 312 34.3 324 33.8C336 33.3 348 34.7 360 35.7C372 36.7 384 37.3 396 35.3C408 33.3 420 28.7 432 28.8C444 29 456 34 468 34.3C480 34.7 492 30.3 504 30.2C516 30 528 34 540 33.7C552 33.3 564 28.7 576 28.2C588 27.7 600 31.3 612 32.2C624 33 636 31 648 29C660 27 672 25 684 25.5C696 26 708 29 720 31.2C732 33.3 744 34.7 756 33.5C768 32.3 780 28.7 792 26.7C804 24.7 816 24.3 828 26.3C840 28.3 852 32.7 864 34.8C876 37 888 37 894 37L900 37L900 51L894 51C888 51 876 51 864 51C852 51 840 51 828 51C816 51 804 51 792 51C780 51 768 51 756 51C744 51 732 51 720 51C708 51 696 51 684 51C672 51 660 51 648 51C636 51 624 51 612 51C600 51 588 51 576 51C564 51 552 51 540 51C528 51 516 51 504 51C492 51 480 51 468 51C456 51 444 51 432 51C420 51 408 51 396 51C384 51 372 51 360 51C348 51 336 51 324 51C312 51 300 51 288 51C276 51 264 51 252 51C240 51 228 51 216 51C204 51 192 51 180 51C168 51 156 51 144 51C132 51 120 51 108 51C96 51 84 51 72 51C60 51 48 51 36 51C24 51 12 51 6 51L0 51Z" fill="#0066FF" stroke-linecap="round" stroke-linejoin="miter"></path></svg>